# xmcd CD database file
# Copyright (C) 1993-1998 Ti Kan
#
# Track frame offsets:
#  150
#  24063
#  50174
#  66350
#  86324
#  99272
#  118880
#  139710
#  152416
#  169479
#  182594
#  203215
#  212173
#  228234
#
# Disc length: 3399 seconds
#
# Revision: 1
# Processed by: cddbd v1.4b41PL1 Copyright (c) Steve Scherf et al.
# Submitted via: CDWizzard Release:4.15
#
DISCID=b90d450e
DTITLE=VGO and ROCKWELL - Times Ain't Now Nothin' Like They Used  to Be
DYEAR=1900
DGENRE=
TTITLE0=M and O Blues
TTITLE1=Special Rider Blues
TTITLE2=Mobile Line
TTITLE3=Devil Got My Woman
TTITLE4=The Stumble
TTITLE5=James Alley Blues
TTITLE6=Cypress Grove Blues
TTITLE7=Don't Wait For Me
TTITLE8=I Don't Want A Woman To Stay Out All Night Long
TTITLE9=Reuben's Train
TTITLE10=Big Road Blues
TTITLE11=A Beatles Song
TTITLE12=You Can't Do That
TTITLE13=Down The Dirt Road
EXTD=
EXTT0=
EXTT1=
EXTT2=
EXTT3=
EXTT4=
EXTT5=
EXTT6=
EXTT7=
EXTT8=
EXTT9=
EXTT10=
EXTT11=
EXTT12=
EXTT13=
PLAYORDER=
